<?xml version="1.0" encoding="utf-8"?>
<svg viewBox="0 0 53.763 53.763" xmlns="http://www.w3.org/2000/svg">
  <circle style="fill: rgb(43, 169, 119);" cx="26.882" cy="26.881" r="26.716"/>
  <g id="g-1" transform="matrix(0.070385, 0, 0, 0.070385, 6.965443, 9.751016)"/>
  <g transform="matrix(0.19507, 0, 0, 0.19507, 92.312693, -58.304884)" id="layer1" style="">
    <path d="M -389.649 446.532 C -389.744 464.725 -376.405 475.571 -355.118 470.64 L -355.118 422.427 C -376.673 415.863 -389.558 429.143 -389.649 446.532 M -354.466 352.713 L -325.148 352.713 L -325.148 491.489 C -353.249 496.083 -380.166 498.997 -399.42 488.229 C -424.213 474.368 -426.206 430.319 -406.588 410.699 C -396.642 400.752 -376.618 393.751 -355.118 398.32 L -355.118 354.668 C -355.173 353.743 -355.224 352.822 -354.466 352.713" id="path2838" style="fill-opacity: 1; fill-rule: evenodd; stroke: none; fill: rgb(255, 255, 255);"/>
    <path d="M -277.585 383.334 L -306.906 383.334 L -306.906 352.713 L -277.585 352.713 L -277.585 383.334 Z" id="path2840" style="fill-opacity: 1; fill-rule: evenodd; stroke: none; fill: rgb(255, 255, 255);"/>
    <path d="M -277.585 398.842 C -277.619 420.43 -277.614 435.945 -277.616 462.171 C -278.861 487.947 -278.573 508.473 -288.011 520.807 C -289.871 523.239 -293.826 526.786 -297.132 529.276 C -299.908 531.368 -305.203 535.607 -308.208 535.791 C -311.238 535.978 -319.02 531.586 -322.542 529.928 C -327.167 527.749 -331.441 524.857 -336.224 523.412 C -325.072 516.502 -314.484 511.322 -310.163 497.352 C -306.404 485.202 -306.906 467.599 -306.906 450.443 C -306.906 433.501 -306.83 413.806 -306.83 398.848 L -277.585 398.842 Z" id="path2860" style="fill-opacity: 1; fill-rule: evenodd; stroke: none; fill: rgb(255, 255, 255);"/>
  </g>
</svg>