<?xml version="1.0" encoding="utf-8"?>
<svg viewBox="0 0 24 24" xmlns="http://www.w3.org/2000/svg">
  <circle style="fill: rgb(49, 97, 145);" cx="12" cy="12" r="11.911"/>
  <path d="M 15.388 4.826 C 14.744 4.831 14.103 4.924 13.483 5.104 L 13.441 5.118 C 13.049 5.05 12.653 5.011 12.257 5.004 C 11.443 4.991 10.743 5.187 10.179 5.517 C 9.623 5.324 8.47 4.992 7.254 5.058 C 6.408 5.104 5.484 5.361 4.8 6.085 C 4.118 6.807 3.757 7.925 3.832 9.447 C 3.854 9.865 3.973 10.55 4.171 11.436 C 4.37 12.323 4.649 13.361 4.997 14.307 C 5.345 15.254 5.725 16.104 6.321 16.683 C 6.617 16.971 7.026 17.215 7.509 17.195 C 7.849 17.182 8.155 17.032 8.419 16.814 C 8.547 16.984 8.685 17.056 8.81 17.126 C 8.968 17.212 9.121 17.271 9.28 17.31 C 9.566 17.381 10.055 17.477 10.628 17.378 C 10.822 17.346 11.027 17.282 11.232 17.192 C 11.24 17.42 11.248 17.644 11.258 17.87 C 11.287 18.586 11.304 19.247 11.519 19.827 C 11.553 19.922 11.648 20.41 12.022 20.841 C 12.394 21.272 13.127 21.541 13.96 21.363 C 14.547 21.237 15.295 21.01 15.79 20.303 C 16.281 19.606 16.504 18.604 16.547 16.979 C 16.558 16.892 16.571 16.817 16.584 16.746 L 16.701 16.758 L 16.715 16.758 C 17.342 16.786 18.023 16.696 18.592 16.433 C 19.094 16.199 19.475 15.963 19.753 15.545 C 19.821 15.441 19.897 15.317 19.919 15.1 C 19.939 14.885 19.815 14.548 19.61 14.392 C 19.198 14.08 18.941 14.198 18.662 14.256 C 18.391 14.316 18.111 14.35 17.832 14.356 C 18.632 13.011 19.204 11.58 19.531 10.316 C 19.724 9.569 19.834 8.88 19.843 8.278 C 19.852 7.675 19.803 7.143 19.442 6.681 C 18.313 5.241 16.729 4.842 15.502 4.828 C 15.464 4.828 15.427 4.827 15.388 4.828 Z M 15.355 5.268 C 16.515 5.258 17.998 5.583 19.062 6.943 C 19.301 7.248 19.372 7.696 19.364 8.246 C 19.355 8.796 19.254 9.453 19.067 10.175 C 18.706 11.57 18.025 13.199 17.065 14.66 C 17.099 14.684 17.135 14.703 17.173 14.719 C 17.374 14.802 17.831 14.873 18.743 14.686 C 18.972 14.638 19.14 14.606 19.315 14.739 C 19.401 14.81 19.447 14.919 19.442 15.032 C 19.432 15.116 19.402 15.196 19.352 15.265 C 19.176 15.529 18.828 15.78 18.382 15.987 C 17.987 16.17 17.42 16.267 16.919 16.272 C 16.667 16.275 16.435 16.255 16.238 16.194 L 16.225 16.189 C 16.149 16.922 15.974 18.37 15.861 19.03 C 15.77 19.561 15.609 19.985 15.304 20.301 C 15 20.618 14.57 20.809 13.99 20.934 C 13.272 21.087 12.749 20.923 12.411 20.637 C 12.075 20.354 11.92 19.978 11.827 19.748 C 11.764 19.589 11.731 19.383 11.699 19.108 C 11.668 18.832 11.644 18.496 11.627 18.116 C 11.607 17.535 11.599 16.954 11.608 16.371 C 11.307 16.646 10.934 16.828 10.534 16.897 C 10.058 16.979 9.632 16.898 9.379 16.836 C 9.254 16.803 9.134 16.758 9.02 16.696 C 8.903 16.634 8.79 16.562 8.715 16.421 C 8.672 16.341 8.658 16.247 8.676 16.158 C 8.7 16.068 8.752 15.986 8.827 15.929 C 8.964 15.818 9.145 15.755 9.419 15.699 C 9.915 15.596 10.089 15.527 10.195 15.443 C 10.284 15.371 10.386 15.227 10.566 15.014 C 10.564 15.004 10.564 14.995 10.563 14.985 C 10.241 14.976 9.927 14.891 9.644 14.737 C 9.54 14.847 9.01 15.407 8.364 16.184 C 8.094 16.509 7.793 16.696 7.476 16.709 C 7.16 16.722 6.874 16.562 6.631 16.327 C 6.144 15.854 5.756 15.042 5.417 14.124 C 5.081 13.206 4.806 12.184 4.611 11.312 C 4.416 10.441 4.301 9.739 4.283 9.4 C 4.212 7.961 4.547 6.99 5.124 6.379 C 5.702 5.767 6.495 5.536 7.268 5.491 C 8.654 5.411 9.971 5.895 10.237 5.998 C 10.749 5.651 11.41 5.433 12.236 5.446 C 12.627 5.452 13.018 5.502 13.399 5.597 L 13.412 5.591 C 13.579 5.532 13.75 5.483 13.922 5.443 C 14.393 5.333 14.872 5.275 15.355 5.269 Z M 15.461 5.731 L 15.359 5.731 C 14.964 5.737 14.569 5.781 14.181 5.864 C 15.043 6.246 15.694 6.834 16.153 7.42 C 16.471 7.825 16.733 8.273 16.934 8.747 C 17.011 8.931 17.061 9.084 17.09 9.203 C 17.106 9.264 17.115 9.315 17.118 9.367 C 17.12 9.393 17.122 9.42 17.11 9.466 C 17.11 9.468 17.107 9.473 17.106 9.476 C 17.127 10.082 16.977 10.492 16.959 11.07 C 16.944 11.489 17.052 11.981 17.078 12.518 C 17.103 13.023 17.042 13.578 16.714 14.122 C 16.742 14.155 16.767 14.188 16.793 14.222 C 17.66 12.855 18.285 11.345 18.619 10.057 C 18.797 9.364 18.892 8.735 18.9 8.238 C 18.908 7.739 18.813 7.379 18.696 7.227 C 17.768 6.041 16.513 5.739 15.461 5.73 Z M 12.149 5.908 C 11.331 5.911 10.746 6.158 10.3 6.527 C 9.841 6.91 9.535 7.433 9.334 7.969 C 9.093 8.605 9.01 9.221 8.978 9.637 L 8.987 9.632 C 9.234 9.493 9.557 9.356 9.906 9.276 C 10.253 9.197 10.626 9.172 10.965 9.303 C 11.304 9.434 11.584 9.743 11.685 10.211 C 12.172 12.464 11.534 13.301 11.299 13.933 C 11.21 14.163 11.133 14.396 11.071 14.633 C 11.1 14.626 11.13 14.617 11.159 14.615 C 11.325 14.601 11.455 14.657 11.533 14.69 C 11.768 14.787 11.932 14.994 12.019 15.229 C 12.042 15.291 12.058 15.357 12.069 15.426 C 12.078 15.454 12.083 15.484 12.082 15.513 C 12.056 16.375 12.059 17.237 12.092 18.097 C 12.107 18.469 12.131 18.797 12.16 19.056 C 12.19 19.314 12.233 19.51 12.259 19.576 C 12.349 19.798 12.477 20.087 12.711 20.285 C 12.944 20.481 13.28 20.612 13.892 20.481 C 14.423 20.366 14.751 20.208 14.971 19.981 C 15.188 19.753 15.32 19.436 15.404 18.951 C 15.528 18.227 15.78 16.121 15.811 15.725 C 15.796 15.426 15.841 15.196 15.936 15.023 C 16.034 14.842 16.187 14.732 16.318 14.672 C 16.383 14.642 16.444 14.623 16.496 14.608 C 16.442 14.531 16.387 14.457 16.327 14.383 C 16.138 14.154 15.983 13.897 15.867 13.624 C 15.812 13.51 15.753 13.399 15.69 13.289 C 15.598 13.123 15.482 12.916 15.359 12.683 C 15.116 12.216 14.852 11.651 14.714 11.1 C 14.577 10.55 14.556 9.979 14.908 9.578 C 15.219 9.222 15.765 9.074 16.585 9.156 C 16.562 9.084 16.547 9.024 16.506 8.926 C 16.321 8.49 16.079 8.081 15.786 7.707 C 15.091 6.819 13.967 5.938 12.228 5.91 L 12.149 5.91 Z M 7.557 5.945 C 7.469 5.945 7.382 5.947 7.294 5.952 C 6.595 5.992 5.934 6.194 5.463 6.695 C 4.99 7.196 4.679 8.016 4.747 9.375 C 4.761 9.632 4.871 10.352 5.064 11.209 C 5.256 12.065 5.528 13.072 5.854 13.963 C 6.181 14.852 6.577 15.625 6.953 15.992 C 7.142 16.176 7.307 16.25 7.456 16.243 C 7.607 16.237 7.787 16.15 8.008 15.886 C 8.41 15.401 8.827 14.927 9.259 14.469 C 8.636 13.927 8.331 13.107 8.452 12.291 C 8.522 11.78 8.533 11.303 8.525 10.925 C 8.516 10.557 8.489 10.313 8.489 10.159 C 8.489 10.156 8.489 10.151 8.489 10.146 L 8.489 10.143 L 8.489 10.14 L 8.489 10.138 C 8.488 9.342 8.627 8.552 8.9 7.804 C 9.092 7.29 9.38 6.766 9.812 6.345 C 9.388 6.204 8.634 5.991 7.819 5.952 C 7.732 5.947 7.644 5.945 7.557 5.945 Z M 16.129 9.597 C 15.659 9.602 15.396 9.724 15.257 9.882 C 15.062 10.107 15.043 10.501 15.164 10.986 C 15.286 11.472 15.536 12.015 15.772 12.468 C 15.889 12.692 16.003 12.897 16.095 13.061 C 16.187 13.228 16.255 13.345 16.297 13.446 C 16.334 13.538 16.377 13.62 16.419 13.695 C 16.601 13.312 16.634 12.936 16.615 12.543 C 16.591 12.056 16.477 11.559 16.494 11.056 C 16.513 10.467 16.629 10.085 16.64 9.63 C 16.471 9.607 16.299 9.597 16.129 9.597 Z M 10.436 9.676 C 10.292 9.677 10.149 9.694 10.01 9.726 C 9.732 9.795 9.463 9.899 9.212 10.037 C 9.128 10.083 9.047 10.136 8.971 10.195 L 8.956 10.209 C 8.961 10.31 8.98 10.554 8.989 10.916 C 8.997 11.309 8.987 11.812 8.911 12.356 C 8.745 13.538 9.604 14.517 10.612 14.518 C 10.671 14.276 10.768 14.03 10.864 13.771 C 11.146 13.014 11.698 12.462 11.232 10.31 C 11.156 9.957 11.006 9.814 10.798 9.734 C 10.682 9.693 10.558 9.673 10.436 9.676 Z M 15.908 9.816 L 15.945 9.816 C 15.989 9.819 16.032 9.824 16.068 9.832 C 16.105 9.84 16.137 9.853 16.164 9.869 C 16.191 9.887 16.209 9.915 16.215 9.946 L 16.215 9.951 L 16.215 9.951 L 16.215 9.951 C 16.216 9.984 16.208 10.017 16.19 10.044 C 16.17 10.083 16.145 10.118 16.115 10.149 C 16.045 10.226 15.95 10.277 15.847 10.295 C 15.748 10.308 15.646 10.283 15.564 10.225 C 15.53 10.202 15.5 10.174 15.474 10.143 C 15.452 10.118 15.437 10.087 15.431 10.056 C 15.428 10.023 15.438 9.99 15.459 9.967 C 15.483 9.941 15.511 9.919 15.541 9.903 C 15.607 9.867 15.697 9.839 15.799 9.824 C 15.837 9.819 15.874 9.815 15.908 9.815 Z M 10.503 9.934 C 10.54 9.934 10.578 9.937 10.617 9.942 C 10.723 9.957 10.817 9.984 10.889 10.027 C 10.924 10.044 10.955 10.069 10.981 10.099 C 11.009 10.132 11.022 10.175 11.018 10.217 C 11.012 10.257 10.993 10.294 10.966 10.324 C 10.938 10.358 10.905 10.388 10.867 10.413 C 10.778 10.477 10.667 10.504 10.557 10.492 C 10.446 10.473 10.344 10.417 10.267 10.334 C 10.234 10.3 10.207 10.262 10.186 10.221 C 10.164 10.184 10.153 10.142 10.157 10.098 C 10.169 10.024 10.23 9.984 10.29 9.964 C 10.358 9.942 10.43 9.932 10.501 9.936 Z M 16.766 15.01 L 16.764 15.01 C 16.664 15.047 16.58 15.062 16.508 15.093 C 16.438 15.122 16.379 15.174 16.342 15.241 C 16.3 15.321 16.263 15.462 16.273 15.702 C 16.305 15.724 16.339 15.74 16.376 15.751 C 16.494 15.786 16.693 15.81 16.914 15.807 C 17.356 15.802 17.898 15.699 18.186 15.563 C 18.422 15.454 18.642 15.311 18.837 15.14 L 18.837 15.14 C 17.875 15.337 17.331 15.285 16.996 15.148 C 16.913 15.114 16.836 15.066 16.766 15.009 Z M 11.214 15.075 L 11.2 15.075 C 11.163 15.077 11.109 15.091 11.007 15.204 C 10.765 15.474 10.682 15.644 10.483 15.802 C 10.286 15.96 10.028 16.044 9.512 16.15 C 9.348 16.184 9.255 16.219 9.194 16.25 C 9.214 16.267 9.211 16.27 9.241 16.286 C 9.316 16.328 9.413 16.364 9.491 16.385 C 9.713 16.439 10.078 16.504 10.456 16.439 C 10.835 16.375 11.231 16.193 11.567 15.72 C 11.625 15.64 11.632 15.519 11.584 15.388 C 11.535 15.26 11.43 15.149 11.355 15.118 C 11.31 15.097 11.263 15.083 11.214 15.076 Z" style="fill: rgb(255, 255, 255);"/>
</svg>